<?xml version="1.0" encoding="utf-8"?>
<!-- Generator: Adobe Illustrator 19.1.0, SVG Export Plug-In . SVG Version: 6.00 Build 0)  -->
<svg version="1.1" id="Layer_1" xmlns="http://www.w3.org/2000/svg" xmlns:xlink="http://www.w3.org/1999/xlink" x="0px" y="0px"
	 viewBox="0 0 510 510" enable-background="new 0 0 510 510" xml:space="preserve">
<path d="M0,470C0,327,0,184,0,41c0.3-0.8,0.8-1.5,0.9-2.3C4.8,16.4,24,0,46.7,0c139.1,0,278.3,0,417.4,0C488.6,0,510,21.3,510,45.9
	c0.1,139.5,0.1,278.9,0,418.4c0,24.2-21.4,45.7-45.5,45.7c-139.6,0.1-279.3,0.1-418.9-0.1c-14.4,0-26.7-6.1-35.1-17.8
	C5.8,485.5,3.4,477.4,0,470z M478.8,255C478.8,255,478.8,255,478.8,255c0.1-68.7,0.1-137.3,0-206c0-11.8-6.1-17.8-17.9-17.8
	c-37.2,0-74.3,0-111.5,0c-75.3,0-150.6,0-226,0c-25,0-50-0.1-75,0.1c-11.5,0.1-17,5.9-17.3,17.3c-0.1,2,0,4,0,6c0,31,0.1,62,0.1,93
	c0,104.3,0,208.6,0,312.9c0,12.4,6,18.3,18.4,18.3c34.8,0,69.7,0,104.5,0c102.1,0,204.3,0,306.4-0.1c12.4,0,18.3-5.9,18.3-18.3
	C478.8,392,478.8,323.5,478.8,255z"/>
<path d="M237.4,283c2-2.8,3.9-5.5,5.7-8.2c25.8-37.4,56.7-69.9,94.2-95.9c13-9,26.9-16.3,42.2-20.6c2.6-0.7,5.1-1.4,6.8,1.4
	c1.7,2.8-0.1,4.8-2.1,6.6c-34,32.1-63,68.4-87.5,108.2c-11.3,18.4-21.5,37.4-32.3,56.1c-3.1,5.3-6.4,10.8-10.6,15.2
	c-9.1,9.6-20.1,9-27.7-1.8c-9.5-13.5-18.8-27.4-27.2-41.6c-15.9-26.8-37.5-48-62.7-65.7c-3.3-2.3-6.6-4.6-9.9-6.9
	c-2-1.4-3.8-2.9-3.1-5.6c0.7-2.5,2.8-3.1,5.1-3.3c17.1-1.6,33.1,2,48.7,8.9c18.7,8.2,33.4,21.4,46.4,36.7
	C228,272,232.6,277.3,237.4,283z"/>
</svg>
