<?xml version="1.0" encoding="utf-8"?>
<!-- Generator: Adobe Illustrator 19.1.0, SVG Export Plug-In . SVG Version: 6.00 Build 0)  -->
<svg version="1.1" id="Шар_1" xmlns="http://www.w3.org/2000/svg" xmlns:xlink="http://www.w3.org/1999/xlink" x="0px" y="0px"
	 viewBox="0 0 512 512" enable-background="new 0 0 512 512" xml:space="preserve">
<g>
	<defs>
		<rect id="SVGID_1_" width="512" height="512"/>
	</defs>
	<clipPath id="SVGID_2_">
		<use xlink:href="#SVGID_1_"  overflow="visible"/>
	</clipPath>
	<path clip-path="url(#SVGID_2_)" d="M240,0h32c1.1,0.3,2.2,0.7,3.3,0.8c46.2,3.7,88.4,18.9,126,45.9c57.9,41.4,94,97,106.9,167.2
		c1.6,9,2.5,18.1,3.7,27.1v30c-0.3,1.6-0.7,3.2-0.9,4.8C507.8,317.4,495,356,472.3,391c-40.2,61.9-96.2,101.3-168.7,116.3
		c-10.7,2.2-21.7,3.2-32.5,4.8h-30c-6.3-0.8-12.5-1.4-18.8-2.3c-52.4-7.6-98.3-29.3-137.3-65c-43.2-39.5-70.6-87.9-81-145.6
		C2.3,290.1,1.3,281,0,272v-32c0.3-1.3,0.7-2.6,0.8-3.8c2.2-28.7,8.9-56.3,21.2-82.2C60.8,72.2,124.2,21.5,213.4,3.8
		C222.2,2.1,231.1,1.3,240,0 M32,255.9C31.9,381.4,129.7,479.6,255.2,480C381.5,480.4,480,382.1,480,255.6
		C480,130.3,381.9,32.3,256.3,32C130.5,31.7,32.1,130,32,255.9"/>
	<path clip-path="url(#SVGID_2_)" d="M256.1,464C143.4,464.3,48.2,368.8,48,255.2C47.8,144.2,143.6,48.1,254.6,48
		c113.6-0.1,208.9,94.4,209.4,207.5C464.5,368,369,463.7,256.1,464 M256.3,80C158.4,79.1,80.9,155.6,80,253.9
		C79.1,353.8,154.8,431,254.7,432c99,0.9,176.3-75.2,177.3-174.4C433,157.8,356.9,80.9,256.3,80"/>
	<polygon clip-path="url(#SVGID_2_)" points="351.8,239.8 351.8,271.8 240.3,271.8 240.3,128.3 271.9,128.3 271.9,239.8 	"/>
</g>
</svg>
