<?xml version="1.0" encoding="utf-8"?>
<!-- Generator: Adobe Illustrator 19.1.0, SVG Export Plug-In . SVG Version: 6.00 Build 0)  -->
<svg version="1.1" id="Layer_1" xmlns="http://www.w3.org/2000/svg" xmlns:xlink="http://www.w3.org/1999/xlink" x="0px" y="0px"
	 viewBox="0 0 396 426.6" enable-background="new 0 0 396 426.6" xml:space="preserve">
<g>
	<path d="M37.3,161.2c0.5-80.2,57.4-146.3,137-159.2c84.3-13.7,168.2,46.6,181.9,130.7c8.5,52.2-5.1,97.9-40.1,137.4
		c-35.3,39.9-70.6,79.9-105.9,119.9c-8.6,9.7-15.6,9.8-24.1,0.2c-37.1-42.1-74.5-84-111.3-126.4C50.3,235.5,37,197.9,37.3,161.2z
		 M197.9,364.7c1.4-1.5,2.6-2.6,3.6-3.8c32.8-37.3,65.7-74.4,98.4-111.8c26.9-30.8,37.4-66.9,31.7-107.1C321,67,252,15.8,177.4,27.7
		C125.8,36,89.6,65.6,71.6,114.4c-17.8,48.3-9.6,93.7,23.5,133.4c24.1,28.9,49.6,56.6,74.5,84.9
		C178.9,343.3,188.3,353.9,197.9,364.7z"/>
	<path d="M198.2,141.5c10.7,0.1,19.3,8.7,19.3,19.4c0,10.8-9,19.8-19.7,19.6c-10.6-0.2-19.3-9-19.3-19.6
		C178.5,150,187.2,141.4,198.2,141.5z"/>
</g>
<g>
	<path fill="#020203" d="M198,426.6c-51.1,0-99.3-2.5-135.7-7.1C20.4,414.3,0,407.3,0,398c0-8.2,15.8-14.6,48.4-19.7
		c27.4-4.2,55.5-7.2,97.2-8.4c4.4-0.1,8.2,2,8.4,4.6c0.2,2.7-3.2,5-7.6,5.1c-40.7,1.2-67.7,4-94.1,8.1C18.1,393.1,16,397.9,16,398
		c0,1.2,8.8,7,49.5,12c35.4,4.4,82.5,6.9,132.5,6.9s97.1-2.4,132.5-6.9c40.7-5.1,49.5-10.9,49.5-12c0,0-2.1-4.9-36.3-10.2
		c-26.4-4.1-53.3-6.9-94.1-8.1c-4.4-0.1-7.8-2.4-7.6-5.1c0.2-2.7,3.9-4.8,8.4-4.6c41.8,1.2,69.9,4.2,97.2,8.4
		c32.6,5,48.4,11.5,48.4,19.7c0,9.3-20.4,16.4-62.3,21.6C297.3,424.1,249.1,426.6,198,426.6z"/>
</g>
</svg>
