<?xml version="1.0" encoding="utf-8"?>
<!-- Generator: Adobe Illustrator 19.1.0, SVG Export Plug-In . SVG Version: 6.00 Build 0)  -->
<svg version="1.1" id="Шар_1" xmlns="http://www.w3.org/2000/svg" xmlns:xlink="http://www.w3.org/1999/xlink" x="0px" y="0px"
	 viewBox="0 0 512 384.1" enable-background="new 0 0 512 384.1" xml:space="preserve">
<g>
	<defs>
		<rect id="SVGID_1_" width="512" height="384.1"/>
	</defs>
	<clipPath id="SVGID_2_">
		<use xlink:href="#SVGID_1_"  overflow="visible"/>
	</clipPath>
	<path clip-path="url(#SVGID_2_)" d="M439.8,153.6c-5-2-10-4.2-14.8-6.2c-4.2-1.8-8.5-3.6-12.8-5.4c-1.7-0.7-2.2-1.6-2.3-2.6
		c-0.5-4.2-0.9-8.5-1.3-12.3c0,0,0-0.1,0-0.1l0.3-0.7c0.8-2,1.6-4,2.4-6c2.5-1.1,4.5-2.9,6-5.3c2.3-3.5,3.7-7.6,4.2-12.1
		c0.6-5.8-1.1-9.6-5.3-12.2c0-0.4,0-0.9,0.1-1.3c0.1-2.3,0.3-4.7,0.2-7.1c-0.2-11.1-6.6-20.1-17.2-24c-8.5-3.1-17.7-3.6-27.3-1.3
		c-13.8,3.2-21.7,13.1-21.7,27.1c0,2,0.2,4,0.3,5.9c0,0.2,0,0.3,0,0.5c-3.3,1.8-5.1,5-5.3,9.4c-0.2,5.9,1.5,11.5,5.1,16.1
		c1,1.3,2.3,2.2,3.5,2.9c0.5,0.3,1,0.6,1.4,1c0.2,0.1,0.2,0.2,0.3,0.3c0.9,2.1,1.8,4.3,2.6,6.5c0.1,0.2,0.1,0.4,0.1,0.4
		c-0.3,3.8-0.6,7.4-1,10.9c-0.2,2.2-1.2,3.5-3.5,4.4c-6.2,2.5-12.4,5.1-18.5,7.7c-3,1.3-6,2.6-9.1,3.8c-5.7,2.4-9.2,6.8-9.9,12.6
		c-0.3,2.8-0.4,5.9-0.1,9.1c0.5,6.6,5.7,11.2,12.5,11.2c15,0,30.1,0,45.1,0c21.5,0,42.9,0,64.4,0c5.8,0,10.9-4.2,11.8-9.7
		c0.4-2.2,0.4-4.4,0.3-6.5v-1.3C450.8,162,447.1,156.6,439.8,153.6 M369.5,140.9c4.5,3.3,9.1,4.9,14.3,4.9c5.1,0,9.7-1.7,14-4.9
		c0.2,0.8,0.4,1.6,0.6,2.4c1.1,4.4,3.7,7.5,7.7,9.2c4.4,1.9,8.8,3.8,13.3,5.7c5.1,2.2,10.2,4.4,15.3,6.5c3.5,1.5,3.8,1.9,3.8,5.5
		l0,1.3c0,1,0,1.9,0,2.9c0,0.2,0,0.3,0,0.4c-0.1,0-0.3,0-0.5,0c-36.2,0-72.4,0-108.7,0c-0.2,0-0.3,0-0.4,0c0-0.1,0-0.2,0-0.3
		c0-1.7,0-3.5,0-5.2l0-0.6c0-1.7,0.7-2.7,2.4-3.4l1.4-0.6c8-3.3,16-6.7,24-10c0.5-0.2,1.1-0.5,1.6-0.7c0.6-0.3,1.1-0.6,1.6-0.7
		C365.1,151.2,368.3,147.1,369.5,140.9 M362.4,100.5c1.6-1.5,2.2-3.7,1.7-6.1c-0.1-0.6-0.2-1.3-0.4-1.9c-0.4-2-0.8-4-0.9-5.9
		c-0.5-6.5,0.8-10.8,4.4-14c2.5-2.3,5.8-3.6,10.6-4.3c5.3-0.8,10.1-0.6,14.6,0.6c8.3,2.1,12,6.8,12.4,15.5c-0.2,0.9-0.3,1.9-0.5,2.8
		c-0.4,2.3-0.7,4.7-1.2,7c-0.5,2.6,0.1,4.8,1.6,6.2c0.7,0.7,2.2,1.7,4.6,1.6c-0.2,2.5-1.1,4.8-2.6,6.7c-0.1,0.1-0.4,0.2-0.8,0.3
		c-2.2,0.4-4.5,1.4-5.5,5c-1.9,6.6-4.1,11.1-7.3,14.7c-2.8,3.2-5.7,4.8-8.9,5c-3.6,0.2-6.7-1.2-9.8-4.5c-3.4-3.6-5.8-8.2-7.5-14.4
		c-0.4-1.3-1.5-5.4-6.4-5.8c0,0-0.1-0.1-0.1-0.1c-1.5-1.9-2.3-4.2-2.6-6.7C359.6,102.2,361.2,101.6,362.4,100.5"/>
	<path clip-path="url(#SVGID_2_)" d="M512,333c-2.8,6.8-8.1,8.8-15.1,8.8c-135.3-0.1-270.6-0.1-405.9-0.1c-25.3,0-50.7,0-76,0
		C3.3,341.7,0,338.5,0,327V15C0,3.3,3.1,0.1,14.7,0.1c121.3,0,242.6,0,363.9,0c39.5,0,79,0.1,118.5-0.1c7.1,0,12.3,2,14.9,9V333z
		 M489.9,22.3H21.8v297.4h468.1V22.3z"/>
	<path clip-path="url(#SVGID_2_)" d="M256,384.1c-29.5,0-59,0-88.5,0c-6.2,0-10.7-3.6-11.4-8.9c-0.9-6.6,3.6-12.1,10.6-12.3
		c8.8-0.3,17.7-0.1,26.5-0.1c49.3,0,98.6,0,148,0c9.4,0,14.5,3.7,14.6,10.6c0.2,7-5,10.8-14.8,10.8
		C312.7,384.1,284.3,384.1,256,384.1"/>
	<path clip-path="url(#SVGID_2_)" d="M234.1,171.3c0-31.5,0-63,0-94.5c0-7.4,4.4-12.2,11-12.1c6.3,0.1,10.5,4.7,10.8,11.9
		c0,0.7,0,1.3,0,2c0,48.2,0,96.3,0,144.5c0,14,0,28,0,42c0,8-4.1,12.8-10.8,12.9c-6.7,0.1-10.9-4.8-11-12.7
		C234.1,234,234.1,202.7,234.1,171.3"/>
	<path clip-path="url(#SVGID_2_)" d="M213,203.5c0,20.7,0,41.3,0,62c0,7.7-4,12.4-10.5,12.5c-6.7,0.1-11-4.6-11-12.6
		c-0.1-27.8,0-55.7,0-83.5c0-13.7-0.1-27.3,0.1-41c0.1-7.5,4.1-12,10.4-12.2c6.5-0.3,11.1,4.3,11.1,11.3
		C213,161.2,213,182.4,213,203.5"/>
	<path clip-path="url(#SVGID_2_)" d="M127.9,214c0,17,0,34,0,51c0,7.9-4.1,12.9-10.7,13c-6.8,0.1-11.1-4.9-11.1-13c0-34,0-68,0-102
		c0-8.1,4-12.9,10.7-13c6.9-0.1,11.1,4.7,11.1,13C127.9,180,127.9,197,127.9,214"/>
	<path clip-path="url(#SVGID_2_)" d="M383.6,278c-17.3,0-34.7,0-52,0c-7.3,0-12-4.1-12.2-10.4c-0.2-6.3,4.8-11.1,12.1-11.1
		c34.8-0.1,69.6-0.1,104.5,0c6.8,0,11.9,5,11.8,11c-0.1,6.1-5.2,10.5-12.2,10.5C418.3,278,400.9,278,383.6,278L383.6,278z"/>
	<path clip-path="url(#SVGID_2_)" d="M383.5,214c17.3,0,34.7,0,52,0c7.4,0,12.3,4.4,12.2,10.8c-0.1,6.1-4.9,10.5-12.1,10.6
		c-34.7,0.1-69.3,0.1-104,0c-7.5,0-12.3-4.6-12.2-10.9c0.1-6.4,4.9-10.4,12.6-10.5C349.2,214,366.3,214,383.5,214"/>
	<path clip-path="url(#SVGID_2_)" d="M149,224.8c0-13.8,0-27.6,0-41.5c0-7.2,4.1-12,10.3-12.2c6.2-0.2,11.1,4.7,11.1,12.1
		c0.1,21.6,0.1,43.3,0,64.9c0,6.3,0.2,12.7-0.1,19c-0.2,5.6-3.5,9.5-8.2,10.6c-4.4,1.1-9.4-0.8-11.6-4.9c-1-1.9-1.6-4.4-1.6-6.6
		C148.9,252.5,149,238.6,149,224.8L149,224.8z"/>
	<path clip-path="url(#SVGID_2_)" d="M85,246c0,7,0.1,14,0,21c-0.1,6.4-4.4,10.9-10.4,11c-6.1,0.1-10.8-4.1-10.8-10.6
		c-0.2-14.3-0.2-28.6,0-43c0.1-6.5,4.7-10.5,10.9-10.4c6.1,0.1,10.2,4.4,10.3,11C85.1,232,85,239,85,246"/>
</g>
</svg>
