<?xml version="1.0" encoding="utf-8"?>
<!-- Generator: Adobe Illustrator 19.1.0, SVG Export Plug-In . SVG Version: 6.00 Build 0)  -->
<svg version="1.1" id="Шар_1" xmlns="http://www.w3.org/2000/svg" xmlns:xlink="http://www.w3.org/1999/xlink" x="0px" y="0px"
	 viewBox="0 0 400.1 512" enable-background="new 0 0 400.1 512" xml:space="preserve">
<g>
	<defs>
		<rect id="SVGID_1_" width="400.1" height="512"/>
	</defs>
	<clipPath id="SVGID_2_">
		<use xlink:href="#SVGID_1_"  overflow="visible"/>
	</clipPath>
	<path clip-path="url(#SVGID_2_)" d="M118,512c-8-1.7-16.1-2.8-23.9-5c-55-15.8-94-67.5-94.1-124.5c-0.1-31-0.1-62,0-93
		c0.1-62.1,46.1-116.7,107.3-127.6c1.5-0.3,2.9-0.7,4.6-1.1c0-13.9,0-27.7,0-41.5c0-30.1,14.4-48,44.4-53.1
		c12.4-2.1,25.2-2.1,37.8-2.1c56.3-0.2,112.7-0.1,169-0.1h4.8V0h32c0,20,0.1,40,0,60c0,3.3-0.3,6.7-0.8,9.9
		c-2.7,17.8-12.3,26-30.7,26c-57.3,0.1-114.6,0-171.9,0.1c-12.8,0-25.6,0.2-38.4,1c-10.9,0.7-14.1,4.8-14.2,15.8
		c-0.1,15.5,0,31,0,46.5c0,0.5,0.2,1,0.4,1.7c17.2,2.7,33.6,8.2,48.3,17.7C233,204.8,255.4,241.3,256,290c0.3,31,0.3,62,0,93
		c-0.5,63.3-48.2,118.3-110.6,127.8c-2.5,0.4-4.9,0.8-7.3,1.2H118z M32.3,320.2c-0.1,1-0.2,1.6-0.2,2.3c0,22-0.5,44,0.2,66
		C33,414,42.1,436.4,60.9,454c22.7,21.4,50.1,28.2,80.7,25.1c42.2-4.4,77.9-39.2,81.3-81.4c1.7-20.9,0.9-41.9,1.2-62.9
		c0.1-4.8,0-9.6,0-14.6H32.3z M111.8,193.5c-52.9,7-81.7,54.5-79.1,94.1h79.1V193.5z M223.6,287.9c1.4-48.4-34-88.9-79.2-94.2v94.2
		H223.6z"/>
</g>
</svg>
