<?xml version="1.0" encoding="utf-8"?>
<!-- Generator: Adobe Illustrator 19.1.0, SVG Export Plug-In . SVG Version: 6.00 Build 0)  -->
<svg version="1.1" id="Шар_1" xmlns="http://www.w3.org/2000/svg" xmlns:xlink="http://www.w3.org/1999/xlink" x="0px" y="0px"
	 viewBox="0 0 123.1 269.6" enable-background="new 0 0 123.1 269.6" xml:space="preserve">
<g>
	<defs>
		<rect id="SVGID_1_" width="123.1" height="269.6"/>
	</defs>
	<clipPath id="SVGID_2_">
		<use xlink:href="#SVGID_1_"  overflow="visible"/>
	</clipPath>
	<path clip-path="url(#SVGID_2_)" d="M122.9,107.4c0,16.8,0.7,33.7-0.1,50.5c-1.6,31.9-28.7,56.9-60.8,57
		c-32.1,0.1-60.1-24.8-61.1-56.6c-1.1-34.3-1-68.6,0.1-102.9C1.8,26.4,27.5,2.1,57,0.1c31-2.1,58.5,18.3,64.6,47.9
		c1,5,1.4,10.2,1.4,15.4c0.2,14.7,0.1,29.3,0.1,44C123,107.4,123,107.4,122.9,107.4 M10.6,107.2L10.6,107.2c0,9.7-0.1,19.3,0,29
		c0.1,8.3-0.7,16.8,0.6,24.9c4.3,27.6,27.6,45.4,55.7,43.3c25.7-1.9,45.8-24.4,45.9-51.6c0.1-30.5,0.2-61-0.2-91.4
		c-0.1-6.5-1.4-13.3-3.8-19.4c-8.7-22.3-32.5-35.3-55.5-31.1c-24.8,4.5-42.3,24.6-42.6,49.4C10.4,75.9,10.6,91.6,10.6,107.2"/>
	<path clip-path="url(#SVGID_2_)" d="M61.7,257.2c8.7-8.8,17-17.1,25.4-25.5c1.1-1.1,2-2.7,3.3-3c2.2-0.4,5.4-0.6,6.5,0.6
		c1.2,1.2,1.2,4.7,0.3,6.5c-1.2,2.4-3.8,4.1-5.8,6.1c-8,8-16,16-24,24c-4.7,4.7-6.6,4.7-11.2,0.2c-9.4-9.4-18.8-18.9-28.3-28.2
		c-2.7-2.7-5.1-5.6-1.8-8.9c3.6-3.7,6.5-1,9.3,1.8C43.9,239.4,52.5,248,61.7,257.2"/>
	<path clip-path="url(#SVGID_2_)" d="M61.7,61.3L61.7,61.3c-2.9,0-5.2-2.4-5.2-5.2V35.8c0-2.9,2.4-5.2,5.2-5.2
		c2.9,0,5.2,2.4,5.2,5.2V56C67,58.9,64.6,61.3,61.7,61.3"/>
</g>
</svg>
