<?xml version="1.0" encoding="utf-8"?>
<!-- Generator: Adobe Illustrator 19.1.0, SVG Export Plug-In . SVG Version: 6.00 Build 0)  -->
<svg version="1.1" id="Шар_1" xmlns="http://www.w3.org/2000/svg" xmlns:xlink="http://www.w3.org/1999/xlink" x="0px" y="0px"
	 viewBox="0 0 480.1 480.1" enable-background="new 0 0 480.1 480.1" xml:space="preserve">
<g>
	<defs>
		<rect id="SVGID_1_" width="480.1" height="480.1"/>
	</defs>
	<clipPath id="SVGID_2_">
		<use xlink:href="#SVGID_1_"  overflow="visible"/>
	</clipPath>
	<path clip-path="url(#SVGID_2_)" d="M208,32.6v-32c142.9-10.8,281.3,122.1,271.6,271.3h-31.8c-8.1,75-43.5,133-106.4,173.6
		c-43,27.8-90.6,38.8-141.6,33.1C86.8,466-3.6,365.5,0.1,249.1C3.6,138.2,93.2,41.9,208,32.6 M414.8,271.9H208V168.4V65.1
		c-90.6,5.2-176.9,80.4-176,193.7c0.8,109.6,89.2,193.6,200.8,188.9C344.1,443.1,410.7,354.8,414.8,271.9 M447,239.8
		C440.2,128.3,341.6,37.7,240.4,33.4v206.5H447z"/>
</g>
</svg>
