<?xml version="1.0" encoding="UTF-8"?><!DOCTYPE svg PUBLIC "-//W3C//DTD SVG 1.1//EN" "http://www.w3.org/Graphics/SVG/1.1/DTD/svg11.dtd"><svg xmlns="http://www.w3.org/2000/svg" xmlns:xlink="http://www.w3.org/1999/xlink"><defs>
        <path id="a" d="M0 0h798.2v233.3H0z"/>
    
        <path id="a" d="M0 0h512v512H0z"/>
    
        <path id="a" d="M0 0h798.2v233.3H0z"/>
    
        <path id="a" d="M0 0h512v384.1H0z"/>
    
        <path id="a" d="M0 0h400.1v512H0z"/>
    
        <path id="a" d="M0 0h123.1v269.6H0z"/>
    
        <path id="a" d="M0 0h480.1v480.1H0z"/>
    </defs><symbol id="icon-Vector Smart Object" viewBox="0 0 798.2 233.3">
    
    <clipPath id="b">
        <use xlink:href="#a" overflow="visible"/>
    </clipPath>
    <path clip-path="url(#b)" d="M327 4.8c0-2.7 2.2-4.8 4.8-4.8h365.5c24.2 0 68.1 5.5 68.1 67.3v144.3c0 2.7-2.2 4.8-4.8 4.8H399.1c-2.7 0-4.8-2.2-4.8-4.8L327 4.8z"/>
    <path clip-path="url(#b)" d="M438.5 228.5c0 2.7-2.2 4.8-4.8 4.8H68.1C43.9 233.3 0 227.8 0 166V21.8C0 19.1 2.2 17 4.8 17h361.5c2.7 0 4.8 2.2 4.8 4.8l67.4 206.7z"/>
    <path clip-path="url(#b)" d="M76.2 93.9c-6 0-10.5 2-10.5 7.1 0 13.1 37.9 6 37.8 31.9 0 14.6-13 21.2-27.3 21.2-10.5 0-21.6-3.5-28.7-9.9l5.5-11c6.2 5.5 16.1 8.8 23.9 8.8 6.6 0 11.7-2.3 11.7-7.6 0-14.6-37.5-6.4-37.4-32.2 0-14.5 12.6-20.6 26.3-20.6 9 0 18.5 2.7 24.9 7.2l-5.6 11.4c-6.4-3.9-14.3-6.3-20.6-6.3"/>
    <path clip-path="url(#b)" d="M185.6 118.1c0 21.3-13.4 35.9-33.8 35.9-11.4 0-20-4.6-25.2-12.9v38.3h-15.4V82.2h15.4v12.3c5.2-8.3 13.8-12.9 24.9-12.9 20.3.1 34.1 14.8 34.1 36.5m-15.6-.5c0-13.3-9-23.1-21.7-23.1s-21.7 9.6-21.7 23.1c0 13.8 9 23.3 21.7 23.3s21.7-9.6 21.7-23.3"/>
    <path clip-path="url(#b)" d="M240 153.5v-8.7c-5.1 6.3-13.3 9.4-23.6 9.4-15.4 0-25.1-9.5-25.1-22.1 0-13 9.8-21.3 26.9-21.4h21.6v-2.1c0-9-5.8-14.3-17-14.3-6.8 0-13.9 2.4-21 7.2l-6.3-10.7c9.9-5.9 17.2-9 30.7-9 18.4 0 28.7 9.4 28.8 25.1l.1 46.8H240zm-.1-25v-6.6h-19.3c-10.1 0-14.7 2.7-14.7 9.5 0 6.4 5.2 10.6 13.8 10.6 10.9 0 19.4-5.8 20.2-13.5"/>
    <path clip-path="url(#b)" d="M298.8 95.2c-12.3 0-21.2 9.3-21.2 22.8s8.8 22.8 21.2 22.8c9 0 16.2-3 21-8.6l8.6 8.6c-6.4 8.4-16.8 13.3-30.3 13.3-21.2 0-35.9-14.6-35.9-36.1 0-21.6 14.7-36.3 35.9-36.3 12.9 0 22.9 4.2 29.5 11.7l-8.4 9.9c-5-5.1-11.9-8.2-20.4-8.1"/>
    <path clip-path="url(#b)" d="M400.2 123.8h-53.9c2.4 11 10.9 17.8 22.1 17.8 7.8 0 14.9-2.9 20.1-8.3l8.2 8.7c-7 7.6-17.2 12.1-29.5 12.1-22 0-36.5-14.6-36.5-36.1 0-21.6 14.9-36.2 36.1-36.3 25.1 0 35.3 16.3 33.4 42.1m-13.4-11.3C386.3 101 378.7 94 367 94c-11.3 0-19.3 7.1-20.9 18.5h40.7z"/>
    <path clip-path="url(#b)" d="M417.8 82.2l18.5 56 17.9-56h16l18.1 56 18.2-56h15.7l-26 71.3h-16l-18.1-52.8-18.1 52.8h-15.8l-26.3-71.3z"/>
    <path clip-path="url(#b)" d="M593.6 117.7c0 21.6-15.1 36.3-37.1 36.3-22.1 0-37.3-14.7-37.3-36.3 0-21.5 15.2-36.1 37.3-36.1 22 .1 37.1 14.7 37.1 36.1m-59 .3c0 13.8 9 23.2 21.9 23.2 12.7 0 21.7-9.4 21.7-23.2 0-13.7-9-23.2-21.7-23.2-12.9 0-21.9 9.5-21.9 23.2"/>
    <path clip-path="url(#b)" d="M600.4 54.1h15.4v99.5h-15.4z"/>
    <path clip-path="url(#b)" d="M639.1 76.5v8.4h18.6v11.5h-18.6v57.1h-15.3V77.9c0-16.6 12.2-24.5 24.5-24.5 5.8 0 11.5 1.6 16.1 5l-5.9 11.8c-2.9-2.1-6.6-3.3-9.8-3.3-5.2-.1-9.6 2.8-9.6 9.6"/>
    <path clip-path="url(#b)" d="M680.1 76.5v8.4h18.6v11.5h-18.6v57.1h-15.3V77.9c0-16.6 12.2-24.5 24.5-24.5 5.8 0 11.5 1.6 16.1 5l-5.9 11.8c-2.9-2.1-6.6-3.3-9.8-3.3-5.1-.1-9.6 2.8-9.6 9.6"/>
    <path clip-path="url(#b)" d="M793.3 205.1c0-2.3-1.6-3.6-4.3-3.6h-4.3v10.6h1.8v-3.2h3l1.9 3.2h2l-2.4-3.5c1.5-.6 2.3-1.8 2.3-3.5m-4.3 2.2h-2.5v-4.2h2.5c1.6 0 2.6.7 2.6 2.1 0 1.4-1 2.1-2.6 2.1m-.4-10c-5.3 0-9.5 4.3-9.5 9.5 0 5.3 4.3 9.5 9.5 9.5 5.3 0 9.5-4.3 9.5-9.5.1-5.2-4.2-9.5-9.5-9.5m0 17.4c-4.3 0-7.9-3.5-7.9-7.9s3.5-7.9 7.9-7.9c4.3 0 7.9 3.5 7.9 7.9s-3.6 7.9-7.9 7.9"/>
</symbol><symbol id="icon-angle-left" viewBox="0 0 64 64">
    <path d="M45.539 63.41c.394.394.908.59 1.424.59s1.031-.197 1.424-.59a2.013 2.013 0 0 0 0-2.848L20.059 32.233 48.407 3.886a2.015 2.015 0 0 0-2.849-2.848L15.822 30.773a2.28 2.28 0 0 0-.484.778 2.014 2.014 0 0 0 .465 2.124L45.539 63.41z"/>
</symbol><symbol id="icon-angle-right" viewBox="0 0 64 64">
    <path d="M44.152 32.024L15.824 60.353a2.014 2.014 0 1 0 2.848 2.849l29.736-29.736c.557-.557.718-1.439.445-2.177a2.042 2.042 0 0 0-.464-.725L18.652.828a2.013 2.013 0 1 0-2.848 2.848l28.348 28.348z"/>
</symbol><symbol id="icon-billboard" viewBox="0 0 369.5 331.1">
    <path d="M309.8 20.1h20.7V0h-62.3v20.3h20.5v41.8H80.8V20h20.7V0H39.2v20.3h20.4v42.3H0v191.8h175v76.7h19.9v-76.9h174.7V62.3h-59.7V20.1zm39.5 62.5V234H20V82.6h329.3z"/>
</symbol><symbol id="icon-check_sq" viewBox="0 0 510 510">
    <path d="M0 470V41c.3-.8.8-1.5.9-2.3C4.8 16.4 24 0 46.7 0h417.4C488.6 0 510 21.3 510 45.9c.1 139.5.1 278.9 0 418.4 0 24.2-21.4 45.7-45.5 45.7-139.6.1-279.3.1-418.9-.1-14.4 0-26.7-6.1-35.1-17.8C5.8 485.5 3.4 477.4 0 470zm478.8-215c.1-68.7.1-137.3 0-206 0-11.8-6.1-17.8-17.9-17.8H123.4c-25 0-50-.1-75 .1-11.5.1-17 5.9-17.3 17.3-.1 2 0 4 0 6 0 31 .1 62 .1 93v312.9c0 12.4 6 18.3 18.4 18.3h104.5c102.1 0 204.3 0 306.4-.1 12.4 0 18.3-5.9 18.3-18.3V255z"/>
    <path d="M237.4 283c2-2.8 3.9-5.5 5.7-8.2 25.8-37.4 56.7-69.9 94.2-95.9 13-9 26.9-16.3 42.2-20.6 2.6-.7 5.1-1.4 6.8 1.4 1.7 2.8-.1 4.8-2.1 6.6-34 32.1-63 68.4-87.5 108.2-11.3 18.4-21.5 37.4-32.3 56.1-3.1 5.3-6.4 10.8-10.6 15.2-9.1 9.6-20.1 9-27.7-1.8-9.5-13.5-18.8-27.4-27.2-41.6-15.9-26.8-37.5-48-62.7-65.7l-9.9-6.9c-2-1.4-3.8-2.9-3.1-5.6.7-2.5 2.8-3.1 5.1-3.3 17.1-1.6 33.1 2 48.7 8.9 18.7 8.2 33.4 21.4 46.4 36.7 4.6 5.5 9.2 10.8 14 16.5z"/>
</symbol><symbol id="icon-checked" viewBox="0 0 49 36">
    <title>
        Shape
    </title>
    <path d="M17.689 35.887c.133 0 .269-.049.404-.076.098.016.193.064.292.064.575 0 1.134-.249 1.526-.681L47.813 3.501a2.008 2.008 0 1 0-2.84-2.84L18.065 31.357 3.725 17.021a2.008 2.008 0 1 0-2.84 2.841l15.189 15.187c.369.534.975.838 1.615.838z" fill-rule="evenodd"/>
</symbol><symbol id="icon-checked_blue" viewBox="0 0 49 36">
    <title>
        Shape
    </title>
    <path d="M17.689 35.887c.133 0 .269-.049.404-.076.098.016.193.064.292.064.575 0 1.134-.249 1.526-.681L47.813 3.501a2.008 2.008 0 1 0-2.84-2.84L18.065 31.357 3.725 17.021a2.008 2.008 0 1 0-2.84 2.841l15.189 15.187c.369.534.975.838 1.615.838z" fill-rule="evenodd"/>
</symbol><symbol id="icon-checked_green" viewBox="0 0 49 36">
    <title>
        Shape
    </title>
    <path d="M17.689 35.887c.133 0 .269-.049.404-.076.098.016.193.064.292.064.575 0 1.134-.249 1.526-.681L47.813 3.501a2.008 2.008 0 1 0-2.84-2.84L18.065 31.357 3.725 17.021a2.008 2.008 0 1 0-2.84 2.841l15.189 15.187c.369.534.975.838 1.615.838z" fill-rule="evenodd"/>
</symbol><symbol id="icon-clock" viewBox="0 0 512 512">
    
    <clipPath id="b">
        <use xlink:href="#a" overflow="visible"/>
    </clipPath>
    <path clip-path="url(#b)" d="M240 0h32c1.1.3 2.2.7 3.3.8 46.2 3.7 88.4 18.9 126 45.9 57.9 41.4 94 97 106.9 167.2 1.6 9 2.5 18.1 3.7 27.1v30c-.3 1.6-.7 3.2-.9 4.8-3.2 41.6-16 80.2-38.7 115.2-40.2 61.9-96.2 101.3-168.7 116.3-10.7 2.2-21.7 3.2-32.5 4.8h-30c-6.3-.8-12.5-1.4-18.8-2.3-52.4-7.6-98.3-29.3-137.3-65-43.2-39.5-70.6-87.9-81-145.6-1.7-9.1-2.7-18.2-4-27.2v-32c.3-1.3.7-2.6.8-3.8C3 207.5 9.7 179.9 22 154 60.8 72.2 124.2 21.5 213.4 3.8c8.8-1.7 17.7-2.5 26.6-3.8M32 255.9c-.1 125.5 97.7 223.7 223.2 224.1 126.3.4 224.8-97.9 224.8-224.4C480 130.3 381.9 32.3 256.3 32 130.5 31.7 32.1 130 32 255.9"/>
    <path clip-path="url(#b)" d="M256.1 464c-112.7.3-207.9-95.2-208.1-208.8-.2-111 95.6-207.1 206.6-207.2 113.6-.1 208.9 94.4 209.4 207.5.5 112.5-95 208.2-207.9 208.5m.2-384C158.4 79.1 80.9 155.6 80 253.9 79.1 353.8 154.8 431 254.7 432c99 .9 176.3-75.2 177.3-174.4 1-99.8-75.1-176.7-175.7-177.6"/>
    <path clip-path="url(#b)" d="M351.8 239.8v32H240.3V128.3h31.6v111.5z"/>
</symbol><symbol id="icon-facebook" viewBox="0 0 10 19">
    <title>
        facebook
    </title>
    <path d="M9.766.157v2.946H8.014c-.64 0-1.071.134-1.295.402-.223.268-.335.67-.335 1.205v2.11h3.27l-.435 3.303H6.384v8.471H2.97v-8.47H.123V6.82H2.97V4.387c0-1.384.387-2.457 1.161-3.22C4.904.404 5.934.023 7.222.023c1.093 0 1.941.045 2.544.134z" fill-rule="evenodd"/>
</symbol><symbol id="icon-instagram" viewBox="0 0 64 64">
    <path d="M58 0H6C2.691 0 0 2.691 0 6v52c0 3.309 2.691 6 6 6h52c3.309 0 6-2.691 6-6V6c0-3.309-2.691-6-6-6zM43.75 9.785c0-2.199 1.8-4 4-4h4.999c2.2 0 4 1.801 4 4v6.057c0 2.199-1.8 4-4 4H47.75c-2.2 0-4-1.801-4-4V9.785zM32 17.891c7.78 0 14.109 6.33 14.109 14.109S39.78 46.109 32 46.109 17.891 39.779 17.891 32 24.22 17.891 32 17.891zM58 60H6c-1.103 0-2-.896-2-2V27.141h10.584A17.944 17.944 0 0 0 13.891 32c0 9.986 8.124 18.109 18.109 18.109S50.109 41.986 50.109 32c0-1.686-.259-3.309-.693-4.859H60V58c0 1.104-.897 2-2 2z"/>
</symbol><symbol id="icon-location" viewBox="0 0 396 426.6">
    <path d="M37.3 161.2C37.8 81 94.7 14.9 174.3 2c84.3-13.7 168.2 46.6 181.9 130.7 8.5 52.2-5.1 97.9-40.1 137.4C280.8 310 245.5 350 210.2 390c-8.6 9.7-15.6 9.8-24.1.2-37.1-42.1-74.5-84-111.3-126.4-24.5-28.3-37.8-65.9-37.5-102.6zm160.6 203.5c1.4-1.5 2.6-2.6 3.6-3.8 32.8-37.3 65.7-74.4 98.4-111.8 26.9-30.8 37.4-66.9 31.7-107.1C321 67 252 15.8 177.4 27.7 125.8 36 89.6 65.6 71.6 114.4c-17.8 48.3-9.6 93.7 23.5 133.4 24.1 28.9 49.6 56.6 74.5 84.9 9.3 10.6 18.7 21.2 28.3 32z"/>
    <path d="M198.2 141.5c10.7.1 19.3 8.7 19.3 19.4 0 10.8-9 19.8-19.7 19.6-10.6-.2-19.3-9-19.3-19.6 0-10.9 8.7-19.5 19.7-19.4z"/>
    <g>
        <path d="M198 426.6c-51.1 0-99.3-2.5-135.7-7.1C20.4 414.3 0 407.3 0 398c0-8.2 15.8-14.6 48.4-19.7 27.4-4.2 55.5-7.2 97.2-8.4 4.4-.1 8.2 2 8.4 4.6.2 2.7-3.2 5-7.6 5.1-40.7 1.2-67.7 4-94.1 8.1C18.1 393.1 16 397.9 16 398c0 1.2 8.8 7 49.5 12 35.4 4.4 82.5 6.9 132.5 6.9s97.1-2.4 132.5-6.9c40.7-5.1 49.5-10.9 49.5-12 0 0-2.1-4.9-36.3-10.2-26.4-4.1-53.3-6.9-94.1-8.1-4.4-.1-7.8-2.4-7.6-5.1.2-2.7 3.9-4.8 8.4-4.6 41.8 1.2 69.9 4.2 97.2 8.4 32.6 5 48.4 11.5 48.4 19.7 0 9.3-20.4 16.4-62.3 21.6-36.4 4.4-84.6 6.9-135.7 6.9z"/>
    </g>
</symbol><symbol id="icon-logo" viewBox="0 0 798.2 233.3">
    
    <clipPath id="b">
        <use xlink:href="#a" overflow="visible"/>
    </clipPath>
    <path clip-path="url(#b)" d="M327 4.8c0-2.7 2.2-4.8 4.8-4.8h365.5c24.2 0 68.1 5.5 68.1 67.3v144.3c0 2.7-2.2 4.8-4.8 4.8H399.1c-2.7 0-4.8-2.2-4.8-4.8L327 4.8z"/>
    <path clip-path="url(#b)" d="M438.5 228.5c0 2.7-2.2 4.8-4.8 4.8H68.1C43.9 233.3 0 227.8 0 166V21.8C0 19.1 2.2 17 4.8 17h361.5c2.7 0 4.8 2.2 4.8 4.8l67.4 206.7z"/>
    <path clip-path="url(#b)" d="M76.2 93.9c-6 0-10.5 2-10.5 7.1 0 13.1 37.9 6 37.8 31.9 0 14.6-13 21.2-27.3 21.2-10.5 0-21.6-3.5-28.7-9.9l5.5-11c6.2 5.5 16.1 8.8 23.9 8.8 6.6 0 11.7-2.3 11.7-7.6 0-14.6-37.5-6.4-37.4-32.2 0-14.5 12.6-20.6 26.3-20.6 9 0 18.5 2.7 24.9 7.2l-5.6 11.4c-6.4-3.9-14.3-6.3-20.6-6.3"/>
    <path clip-path="url(#b)" d="M185.6 118.1c0 21.3-13.4 35.9-33.8 35.9-11.4 0-20-4.6-25.2-12.9v38.3h-15.4V82.2h15.4v12.3c5.2-8.3 13.8-12.9 24.9-12.9 20.3.1 34.1 14.8 34.1 36.5m-15.6-.5c0-13.3-9-23.1-21.7-23.1s-21.7 9.6-21.7 23.1c0 13.8 9 23.3 21.7 23.3s21.7-9.6 21.7-23.3"/>
    <path clip-path="url(#b)" d="M240 153.5v-8.7c-5.1 6.3-13.3 9.4-23.6 9.4-15.4 0-25.1-9.5-25.1-22.1 0-13 9.8-21.3 26.9-21.4h21.6v-2.1c0-9-5.8-14.3-17-14.3-6.8 0-13.9 2.4-21 7.2l-6.3-10.7c9.9-5.9 17.2-9 30.7-9 18.4 0 28.7 9.4 28.8 25.1l.1 46.8H240zm-.1-25v-6.6h-19.3c-10.1 0-14.7 2.7-14.7 9.5 0 6.4 5.2 10.6 13.8 10.6 10.9 0 19.4-5.8 20.2-13.5"/>
    <path clip-path="url(#b)" d="M298.8 95.2c-12.3 0-21.2 9.3-21.2 22.8s8.8 22.8 21.2 22.8c9 0 16.2-3 21-8.6l8.6 8.6c-6.4 8.4-16.8 13.3-30.3 13.3-21.2 0-35.9-14.6-35.9-36.1 0-21.6 14.7-36.3 35.9-36.3 12.9 0 22.9 4.2 29.5 11.7l-8.4 9.9c-5-5.1-11.9-8.2-20.4-8.1"/>
    <path clip-path="url(#b)" d="M400.2 123.8h-53.9c2.4 11 10.9 17.8 22.1 17.8 7.8 0 14.9-2.9 20.1-8.3l8.2 8.7c-7 7.6-17.2 12.1-29.5 12.1-22 0-36.5-14.6-36.5-36.1 0-21.6 14.9-36.2 36.1-36.3 25.1 0 35.3 16.3 33.4 42.1m-13.4-11.3C386.3 101 378.7 94 367 94c-11.3 0-19.3 7.1-20.9 18.5h40.7z"/>
    <path clip-path="url(#b)" d="M417.8 82.2l18.5 56 17.9-56h16l18.1 56 18.2-56h15.7l-26 71.3h-16l-18.1-52.8-18.1 52.8h-15.8l-26.3-71.3z"/>
    <path clip-path="url(#b)" d="M593.6 117.7c0 21.6-15.1 36.3-37.1 36.3-22.1 0-37.3-14.7-37.3-36.3 0-21.5 15.2-36.1 37.3-36.1 22 .1 37.1 14.7 37.1 36.1m-59 .3c0 13.8 9 23.2 21.9 23.2 12.7 0 21.7-9.4 21.7-23.2 0-13.7-9-23.2-21.7-23.2-12.9 0-21.9 9.5-21.9 23.2"/>
    <path clip-path="url(#b)" d="M600.4 54.1h15.4v99.5h-15.4z"/>
    <path clip-path="url(#b)" d="M639.1 76.5v8.4h18.6v11.5h-18.6v57.1h-15.3V77.9c0-16.6 12.2-24.5 24.5-24.5 5.8 0 11.5 1.6 16.1 5l-5.9 11.8c-2.9-2.1-6.6-3.3-9.8-3.3-5.2-.1-9.6 2.8-9.6 9.6"/>
    <path clip-path="url(#b)" d="M680.1 76.5v8.4h18.6v11.5h-18.6v57.1h-15.3V77.9c0-16.6 12.2-24.5 24.5-24.5 5.8 0 11.5 1.6 16.1 5l-5.9 11.8c-2.9-2.1-6.6-3.3-9.8-3.3-5.1-.1-9.6 2.8-9.6 9.6"/>
    <path clip-path="url(#b)" d="M793.3 205.1c0-2.3-1.6-3.6-4.3-3.6h-4.3v10.6h1.8v-3.2h3l1.9 3.2h2l-2.4-3.5c1.5-.6 2.3-1.8 2.3-3.5m-4.3 2.2h-2.5v-4.2h2.5c1.6 0 2.6.7 2.6 2.1 0 1.4-1 2.1-2.6 2.1m-.4-10c-5.3 0-9.5 4.3-9.5 9.5 0 5.3 4.3 9.5 9.5 9.5 5.3 0 9.5-4.3 9.5-9.5.1-5.2-4.2-9.5-9.5-9.5m0 17.4c-4.3 0-7.9-3.5-7.9-7.9s3.5-7.9 7.9-7.9c4.3 0 7.9 3.5 7.9 7.9s-3.6 7.9-7.9 7.9"/>
</symbol><symbol id="icon-monitor" viewBox="0 0 512 384.1">
    
    <clipPath id="b">
        <use xlink:href="#a" overflow="visible"/>
    </clipPath>
    <path clip-path="url(#b)" d="M439.8 153.6c-5-2-10-4.2-14.8-6.2-4.2-1.8-8.5-3.6-12.8-5.4-1.7-.7-2.2-1.6-2.3-2.6-.5-4.2-.9-8.5-1.3-12.3v-.1l.3-.7 2.4-6c2.5-1.1 4.5-2.9 6-5.3 2.3-3.5 3.7-7.6 4.2-12.1.6-5.8-1.1-9.6-5.3-12.2 0-.4 0-.9.1-1.3.1-2.3.3-4.7.2-7.1-.2-11.1-6.6-20.1-17.2-24-8.5-3.1-17.7-3.6-27.3-1.3-13.8 3.2-21.7 13.1-21.7 27.1 0 2 .2 4 .3 5.9v.5c-3.3 1.8-5.1 5-5.3 9.4-.2 5.9 1.5 11.5 5.1 16.1 1 1.3 2.3 2.2 3.5 2.9.5.3 1 .6 1.4 1 .2.1.2.2.3.3.9 2.1 1.8 4.3 2.6 6.5.1.2.1.4.1.4-.3 3.8-.6 7.4-1 10.9-.2 2.2-1.2 3.5-3.5 4.4-6.2 2.5-12.4 5.1-18.5 7.7-3 1.3-6 2.6-9.1 3.8-5.7 2.4-9.2 6.8-9.9 12.6-.3 2.8-.4 5.9-.1 9.1.5 6.6 5.7 11.2 12.5 11.2h109.5c5.8 0 10.9-4.2 11.8-9.7.4-2.2.4-4.4.3-6.5v-1.3c.5-7.3-3.2-12.7-10.5-15.7m-70.3-12.7c4.5 3.3 9.1 4.9 14.3 4.9 5.1 0 9.7-1.7 14-4.9l.6 2.4c1.1 4.4 3.7 7.5 7.7 9.2 4.4 1.9 8.8 3.8 13.3 5.7 5.1 2.2 10.2 4.4 15.3 6.5 3.5 1.5 3.8 1.9 3.8 5.5V174.8H328.9v-.3-5.8c0-1.7.7-2.7 2.4-3.4l1.4-.6c8-3.3 16-6.7 24-10 .5-.2 1.1-.5 1.6-.7.6-.3 1.1-.6 1.6-.7 5.2-2.1 8.4-6.2 9.6-12.4m-7.1-40.4c1.6-1.5 2.2-3.7 1.7-6.1-.1-.6-.2-1.3-.4-1.9-.4-2-.8-4-.9-5.9-.5-6.5.8-10.8 4.4-14 2.5-2.3 5.8-3.6 10.6-4.3 5.3-.8 10.1-.6 14.6.6 8.3 2.1 12 6.8 12.4 15.5-.2.9-.3 1.9-.5 2.8-.4 2.3-.7 4.7-1.2 7-.5 2.6.1 4.8 1.6 6.2.7.7 2.2 1.7 4.6 1.6-.2 2.5-1.1 4.8-2.6 6.7-.1.1-.4.2-.8.3-2.2.4-4.5 1.4-5.5 5-1.9 6.6-4.1 11.1-7.3 14.7-2.8 3.2-5.7 4.8-8.9 5-3.6.2-6.7-1.2-9.8-4.5-3.4-3.6-5.8-8.2-7.5-14.4-.4-1.3-1.5-5.4-6.4-5.8l-.1-.1c-1.5-1.9-2.3-4.2-2.6-6.7 1.8 0 3.4-.6 4.6-1.7"/>
    <path clip-path="url(#b)" d="M512 333c-2.8 6.8-8.1 8.8-15.1 8.8-135.3-.1-270.6-.1-405.9-.1H15c-11.7 0-15-3.2-15-14.7V15C0 3.3 3.1.1 14.7.1h363.9c39.5 0 79 .1 118.5-.1 7.1 0 12.3 2 14.9 9v324zM489.9 22.3H21.8v297.4h468.1V22.3z"/>
    <path clip-path="url(#b)" d="M256 384.1h-88.5c-6.2 0-10.7-3.6-11.4-8.9-.9-6.6 3.6-12.1 10.6-12.3 8.8-.3 17.7-.1 26.5-.1h148c9.4 0 14.5 3.7 14.6 10.6.2 7-5 10.8-14.8 10.8-28.3-.1-56.7-.1-85-.1"/>
    <path clip-path="url(#b)" d="M234.1 171.3V76.8c0-7.4 4.4-12.2 11-12.1 6.3.1 10.5 4.7 10.8 11.9v188.5c0 8-4.1 12.8-10.8 12.9-6.7.1-10.9-4.8-11-12.7v-94"/>
    <path clip-path="url(#b)" d="M213 203.5v62c0 7.7-4 12.4-10.5 12.5-6.7.1-11-4.6-11-12.6-.1-27.8 0-55.7 0-83.5 0-13.7-.1-27.3.1-41 .1-7.5 4.1-12 10.4-12.2 6.5-.3 11.1 4.3 11.1 11.3-.1 21.2-.1 42.4-.1 63.5"/>
    <path clip-path="url(#b)" d="M127.9 214v51c0 7.9-4.1 12.9-10.7 13-6.8.1-11.1-4.9-11.1-13V163c0-8.1 4-12.9 10.7-13 6.9-.1 11.1 4.7 11.1 13v51"/>
    <path clip-path="url(#b)" d="M383.6 278h-52c-7.3 0-12-4.1-12.2-10.4-.2-6.3 4.8-11.1 12.1-11.1 34.8-.1 69.6-.1 104.5 0 6.8 0 11.9 5 11.8 11-.1 6.1-5.2 10.5-12.2 10.5h-52z"/>
    <path clip-path="url(#b)" d="M383.5 214h52c7.4 0 12.3 4.4 12.2 10.8-.1 6.1-4.9 10.5-12.1 10.6-34.7.1-69.3.1-104 0-7.5 0-12.3-4.6-12.2-10.9.1-6.4 4.9-10.4 12.6-10.5h51.5"/>
    <path clip-path="url(#b)" d="M149 224.8v-41.5c0-7.2 4.1-12 10.3-12.2 6.2-.2 11.1 4.7 11.1 12.1.1 21.6.1 43.3 0 64.9 0 6.3.2 12.7-.1 19-.2 5.6-3.5 9.5-8.2 10.6-4.4 1.1-9.4-.8-11.6-4.9-1-1.9-1.6-4.4-1.6-6.6 0-13.7.1-27.6.1-41.4z"/>
    <path clip-path="url(#b)" d="M85 246c0 7 .1 14 0 21-.1 6.4-4.4 10.9-10.4 11-6.1.1-10.8-4.1-10.8-10.6-.2-14.3-.2-28.6 0-43 .1-6.5 4.7-10.5 10.9-10.4 6.1.1 10.2 4.4 10.3 11 .1 7 0 14 0 21"/>
</symbol><symbol id="icon-mouse" viewBox="0 0 400.1 512">
    
    <clipPath id="b">
        <use xlink:href="#a" overflow="visible"/>
    </clipPath>
    <path clip-path="url(#b)" d="M118 512c-8-1.7-16.1-2.8-23.9-5-55-15.8-94-67.5-94.1-124.5-.1-31-.1-62 0-93 .1-62.1 46.1-116.7 107.3-127.6 1.5-.3 2.9-.7 4.6-1.1v-41.5c0-30.1 14.4-48 44.4-53.1 12.4-2.1 25.2-2.1 37.8-2.1 56.3-.2 112.7-.1 169-.1h4.8V0h32c0 20 .1 40 0 60 0 3.3-.3 6.7-.8 9.9-2.7 17.8-12.3 26-30.7 26-57.3.1-114.6 0-171.9.1-12.8 0-25.6.2-38.4 1-10.9.7-14.1 4.8-14.2 15.8-.1 15.5 0 31 0 46.5 0 .5.2 1 .4 1.7 17.2 2.7 33.6 8.2 48.3 17.7C233 204.8 255.4 241.3 256 290c.3 31 .3 62 0 93-.5 63.3-48.2 118.3-110.6 127.8-2.5.4-4.9.8-7.3 1.2H118zM32.3 320.2c-.1 1-.2 1.6-.2 2.3 0 22-.5 44 .2 66 .7 25.5 9.8 47.9 28.6 65.5 22.7 21.4 50.1 28.2 80.7 25.1 42.2-4.4 77.9-39.2 81.3-81.4 1.7-20.9.9-41.9 1.2-62.9.1-4.8 0-9.6 0-14.6H32.3zm79.5-126.7c-52.9 7-81.7 54.5-79.1 94.1h79.1v-94.1zm111.8 94.4c1.4-48.4-34-88.9-79.2-94.2v94.2h79.2z"/>
</symbol><symbol id="icon-mouse_down" viewBox="0 0 123.1 269.6">
    
    <clipPath id="b">
        <use xlink:href="#a" overflow="visible"/>
    </clipPath>
    <path clip-path="url(#b)" d="M122.9 107.4c0 16.8.7 33.7-.1 50.5-1.6 31.9-28.7 56.9-60.8 57-32.1.1-60.1-24.8-61.1-56.6C-.2 124-.1 89.7 1 55.4c.8-29 26.5-53.3 56-55.3C88-2 115.5 18.4 121.6 48c1 5 1.4 10.2 1.4 15.4.2 14.7.1 29.3.1 44h-.2m-112.3-.2c0 9.7-.1 19.3 0 29 .1 8.3-.7 16.8.6 24.9 4.3 27.6 27.6 45.4 55.7 43.3 25.7-1.9 45.8-24.4 45.9-51.6.1-30.5.2-61-.2-91.4-.1-6.5-1.4-13.3-3.8-19.4-8.7-22.3-32.5-35.3-55.5-31.1C28.5 15.4 11 35.5 10.7 60.3c-.3 15.6-.1 31.3-.1 46.9"/>
    <path clip-path="url(#b)" d="M61.7 257.2c8.7-8.8 17-17.1 25.4-25.5 1.1-1.1 2-2.7 3.3-3 2.2-.4 5.4-.6 6.5.6 1.2 1.2 1.2 4.7.3 6.5-1.2 2.4-3.8 4.1-5.8 6.1l-24 24c-4.7 4.7-6.6 4.7-11.2.2-9.4-9.4-18.8-18.9-28.3-28.2-2.7-2.7-5.1-5.6-1.8-8.9 3.6-3.7 6.5-1 9.3 1.8 8.5 8.6 17.1 17.2 26.3 26.4"/>
    <path clip-path="url(#b)" d="M61.7 61.3c-2.9 0-5.2-2.4-5.2-5.2V35.8c0-2.9 2.4-5.2 5.2-5.2 2.9 0 5.2 2.4 5.2 5.2V56c.1 2.9-2.3 5.3-5.2 5.3"/>
</symbol><symbol id="icon-pie" viewBox="0 0 480.1 480.1">
    
    <clipPath id="b">
        <use xlink:href="#a" overflow="visible"/>
    </clipPath>
    <path clip-path="url(#b)" d="M208 32.6V.6c142.9-10.8 281.3 122.1 271.6 271.3h-31.8c-8.1 75-43.5 133-106.4 173.6-43 27.8-90.6 38.8-141.6 33.1C86.8 466-3.6 365.5.1 249.1 3.6 138.2 93.2 41.9 208 32.6m206.8 239.3H208V65.1c-90.6 5.2-176.9 80.4-176 193.7.8 109.6 89.2 193.6 200.8 188.9 111.3-4.6 177.9-92.9 182-175.8m32.2-32.1C440.2 128.3 341.6 37.7 240.4 33.4v206.5H447z"/>
</symbol><symbol id="icon-twitter" viewBox="0 0 449.956 449.956">
    <path d="M449.956 85.657c-17.702 7.614-35.408 12.369-53.102 14.279 19.985-11.991 33.503-28.931 40.546-50.819-18.281 10.847-37.787 18.268-58.532 22.267-18.274-19.414-40.73-29.125-67.383-29.125-25.502 0-47.246 8.992-65.24 26.98-17.984 17.987-26.977 39.731-26.977 65.235 0 6.851.76 13.896 2.284 21.128-37.688-1.903-73.042-11.372-106.068-28.407C82.46 110.158 54.433 87.46 31.403 59.101c-8.375 14.272-12.564 29.787-12.564 46.536 0 15.798 3.711 30.456 11.138 43.97 7.422 13.512 17.417 24.455 29.98 32.831-14.849-.572-28.743-4.475-41.684-11.708v1.142c0 22.271 6.995 41.824 20.983 58.674 13.99 16.848 31.645 27.453 52.961 31.833a95.543 95.543 0 0 1-24.269 3.138c-5.33 0-11.136-.475-17.416-1.42 5.9 18.459 16.75 33.633 32.546 45.535 15.799 11.896 33.691 18.028 53.677 18.418-33.498 26.262-71.66 39.393-114.486 39.393-8.186 0-15.607-.373-22.27-1.139 42.827 27.596 90.03 41.394 141.612 41.394 32.738 0 63.478-5.181 92.21-15.557 28.746-10.369 53.297-24.267 73.665-41.686 20.362-17.415 37.925-37.448 52.674-60.097 14.75-22.651 25.738-46.298 32.977-70.946 7.23-24.653 10.848-49.344 10.848-74.092 0-5.33-.096-9.325-.287-11.991 18.087-13.127 33.504-29.023 46.258-47.672z"/>
</symbol></svg>